<svg xmlns="http://www.w3.org/2000/svg" width="83.55" height="83.55" viewBox="0 0 83.55 83.55">
  <g id="Group_37" data-name="Group 37" transform="translate(111.775 -8.225)">
    <path id="Path_81" data-name="Path 81" d="M-61.81,43.641l-.432,5.749h-5.6V68.647h-7.377V49.39h-3.735V43.641h3.735V38.085s-.264-6.364,7.377-6.708a24.79,24.79,0,0,1,6.806.671l-.785,5.652s-6.021-1.866-6.021,1.771V43.64h6.037Z" fill="#fff"/>
    <path id="Path_82" data-name="Path 82" d="M-70,91.775A41.823,41.823,0,0,1-111.775,50,41.822,41.822,0,0,1-70,8.225,41.822,41.822,0,0,1-28.225,50,41.824,41.824,0,0,1-70,91.775Zm0-77.811A36.076,36.076,0,0,0-106.036,50,36.076,36.076,0,0,0-70,86.035,36.076,36.076,0,0,0-33.965,50,36.075,36.075,0,0,0-70,13.964Z" fill="#fff"/>
  </g>
</svg>
