<svg xmlns="http://www.w3.org/2000/svg" width="83.55" height="83.55" viewBox="0 0 83.55 83.55">
  <path id="Path_105" data-name="Path 105" d="M428.143,37.455a9.783,9.783,0,0,0-5.6-5.6,14.107,14.107,0,0,0-4.648-.888c-2.041-.095-2.7-.115-7.895-.115s-5.855.021-7.9.115a14.088,14.088,0,0,0-4.646.888,9.768,9.768,0,0,0-5.6,5.6,14.053,14.053,0,0,0-.891,4.649c-.094,2.042-.117,2.694-.117,7.9s.023,5.853.117,7.9a14.02,14.02,0,0,0,.891,4.648,9.777,9.777,0,0,0,5.6,5.6,14.14,14.14,0,0,0,4.646.89c2.041.091,2.7.115,7.9.115s5.854-.024,7.895-.115a14.148,14.148,0,0,0,4.648-.89,9.792,9.792,0,0,0,5.6-5.6,13.98,13.98,0,0,0,.889-4.648c.1-2.042.117-2.694.117-7.9s-.021-5.853-.117-7.9A14.034,14.034,0,0,0,428.143,37.455Zm-2.555,20.283a10.574,10.574,0,0,1-.662,3.556,5.871,5.871,0,0,1-1.432,2.2,5.974,5.974,0,0,1-2.2,1.436,10.653,10.653,0,0,1-3.555.657c-2.02.094-2.625.112-7.738.112s-5.721-.019-7.738-.112a10.683,10.683,0,0,1-3.557-.657,6.381,6.381,0,0,1-3.633-3.635,10.74,10.74,0,0,1-.66-3.556c-.092-2.021-.109-2.625-.109-7.739s.018-5.718.109-7.735a10.735,10.735,0,0,1,.66-3.557,6.361,6.361,0,0,1,3.633-3.634,10.558,10.558,0,0,1,3.557-.66c2.02-.091,2.623-.111,7.738-.111s5.719.021,7.738.111a10.554,10.554,0,0,1,3.555.66,6.346,6.346,0,0,1,3.633,3.634,10.558,10.558,0,0,1,.662,3.557c.09,2.018.109,2.623.109,7.735S425.678,55.717,425.588,57.738ZM410,40.169A9.832,9.832,0,1,0,419.832,50,9.828,9.828,0,0,0,410,40.169Zm0,16.215A6.384,6.384,0,1,1,416.381,50,6.383,6.383,0,0,1,410,56.384Zm12.52-16.6a2.3,2.3,0,1,1-2.3-2.3A2.3,2.3,0,0,1,422.52,39.78ZM410,8.225A41.775,41.775,0,1,0,451.775,50,41.82,41.82,0,0,0,410,8.225Zm0,77.81A36.035,36.035,0,1,1,446.035,50,36.075,36.075,0,0,1,410,86.035Z" transform="translate(-368.225 -8.225)" fill="#fff"/>
</svg>
