<svg xmlns="http://www.w3.org/2000/svg" width="83.552" height="83.55" viewBox="0 0 83.552 83.55">
  <g id="Group_38" data-name="Group 38" transform="translate(-128.224 -8.225)">
    <path id="Path_27" data-name="Path 27" d="M187.55,36.624a14.672,14.672,0,0,1-4.625,1.768,7.289,7.289,0,0,0-12.408,6.638,20.664,20.664,0,0,1-15.008-7.606,7.288,7.288,0,0,0,2.255,9.722,7.231,7.231,0,0,1-3.3-.912c0,.03,0,.063,0,.094a7.282,7.282,0,0,0,5.843,7.138,7.25,7.25,0,0,1-1.92.258,7.344,7.344,0,0,1-1.368-.131,7.286,7.286,0,0,0,6.8,5.055,14.6,14.6,0,0,1-9.044,3.118,14.234,14.234,0,0,1-1.736-.1A20.622,20.622,0,0,0,164.2,64.935c13.394,0,20.717-11.1,20.717-20.717,0-.315-.008-.63-.021-.943a14.788,14.788,0,0,0,3.632-3.768,14.59,14.59,0,0,1-4.182,1.144A7.3,7.3,0,0,0,187.55,36.624Z" fill="#fff"/>
    <path id="Path_28" data-name="Path 28" d="M170,8.225A41.775,41.775,0,1,0,211.776,50,41.822,41.822,0,0,0,170,8.225Zm0,77.81A36.036,36.036,0,1,1,206.036,50,36.077,36.077,0,0,1,170,86.035Z" fill="#fff"/>
  </g>
</svg>
